<svg id="Layer_1" height="512" viewBox="0 0 512 512" width="512" xmlns="http://www.w3.org/2000/svg" xmlns:xlink="http://www.w3.org/1999/xlink" data-name="Layer 1"><linearGradient id="linear-gradient" gradientUnits="userSpaceOnUse" x1="80.285" x2="80.285" y1="456" y2="72.62"><stop offset=".322" stop-color="#a163f5"/><stop offset=".466" stop-color="#b074ee"/><stop offset=".752" stop-color="#d8a1dd"/><stop offset=".898" stop-color="#efbad3"/></linearGradient><linearGradient id="linear-gradient-2" x1="74.141" x2="74.141" xlink:href="#linear-gradient" y1="456" y2="72.62"/><linearGradient id="linear-gradient-3" x1="256" x2="256" xlink:href="#linear-gradient" y1="456" y2="72.62"/><path d="m79.575 207.737c.156.013.311.018.466.018a6 6 0 0 0 5.976-5.541l.5-6.544a6 6 0 0 0 -11.965-.919l-.5 6.544a6 6 0 0 0 5.523 6.442z" fill="url(#linear-gradient)"/><path d="m69.476 311.207a6.094 6.094 0 0 0 .616.031 6 6 0 0 0 5.962-5.392l8.113-79.575a6 6 0 0 0 -11.939-1.216l-8.113 79.574a6 6 0 0 0 5.361 6.578z" fill="url(#linear-gradient-2)"/><path d="m469.021 178.944a32.913 32.913 0 0 0 -8.545 1.129l-141.824-123.149a38.451 38.451 0 0 0 -75.265-7.924h-131.307a42.914 42.914 0 1 0 -55.741 62.861l-26.281 303.739a40.276 40.276 0 1 0 57.4 50.33l216.746-55.147a48.205 48.205 0 0 0 81.244-50.225l86.687-115.806a32.977 32.977 0 0 0 -3.117-65.807zm-152.044-107.583 131.866 114.5a33.006 33.006 0 0 0 -12.243 20.073l-107.934.216a30.137 30.137 0 0 0 -23.966-23.535l-8.7-87.754a38.654 38.654 0 0 0 20.977-23.5zm.291 140.8a18.056 18.056 0 1 1 -18.056-18.061 18.076 18.076 0 0 1 18.056 18.061zm-36.962-178.861a26.463 26.463 0 1 1 -26.462 26.463 26.492 26.492 0 0 1 26.462-26.463zm-38.431 27.7a38.465 38.465 0 0 0 42.382 37.021l8.4 84.811a29.918 29.918 0 0 0 -10.633 4.691l-162.88-126.523zm-121.375 16.248 153.22 119.017a29.932 29.932 0 0 0 -3.827 22.488l-85.913 19.462a28.582 28.582 0 0 0 -33.108-12.915l-50.487-114.28a42.951 42.951 0 0 0 20.115-33.772zm55.4 175.382a16.6 16.6 0 1 1 -16.6-16.6 16.617 16.617 0 0 1 16.6 16.6zm-129.17-178.005a30.929 30.929 0 1 1 30.929 30.928 30.964 30.964 0 0 1 -30.929-30.928zm21.257 41.816a42.67 42.67 0 0 0 21.436-.54l50.945 115.321a28.549 28.549 0 0 0 .838 43.535l-76.27 138.143a40.12 40.12 0 0 0 -22.426-2.009zm-17.701 362.259a28.286 28.286 0 1 1 28.285-28.286 28.318 28.318 0 0 1 -28.285 28.286zm246.887-79.34-206.673 53.379c.043-.77.071-1.543.071-2.323a40.225 40.225 0 0 0 -15.239-31.516l76.55-138.651a28.516 28.516 0 0 0 26.285-6.155l125.26 76.243a48.078 48.078 0 0 0 -6.254 49.028zm-111.829-134.948a28.421 28.421 0 0 0 2.556-11.782 28.727 28.727 0 0 0 -.154-2.963l87.016-20.091a30 30 0 0 0 29.111 12.278l31.162 90.411a47.98 47.98 0 0 0 -22.789 9.386zm156.015 151.881a36.229 36.229 0 1 1 36.229-36.228 36.269 36.269 0 0 1 -36.229 36.228zm37.329-66.726a48.2 48.2 0 0 0 -30.362-17.2l-33.214-94.716a30.137 30.137 0 0 0 13.555-19.5l107.934-.216a33.08 33.08 0 0 0 21.764 25.192zm90.333-116.667a20.979 20.979 0 1 1 20.979-20.977 21 21 0 0 1 -20.979 20.977z" fill="url(#linear-gradient-3)"/></svg>